<mxfile host="app.diagrams.net" modified="2020-08-09T13:14:45.913Z" agent="5.0 (Macintosh; Intel Mac OS X 10_14_3) AppleWebKit/537.36 (KHTML, like Gecko) Chrome/84.0.4147.105 Safari/537.36" etag="XWxf0Sq-6n_xSAOaNr0_" version="13.6.2" type="github">
  <diagram id="tcz3aTWAC30-OBeXaM83" name="Page-1">
    <mxGraphModel dx="1106" dy="1060" grid="1" gridSize="10" guides="1" tooltips="1" connect="1" arrows="1" fold="1" page="1" pageScale="1" pageWidth="827" pageHeight="1169" math="0" shadow="0">
      <root>
        <mxCell id="0" />
        <mxCell id="1" parent="0" />
        <mxCell id="wo2wBc4n8cHvYzIf5kkk-1" value="" style="outlineConnect=0;fontColor=#232F3E;gradientColor=#F34482;gradientDirection=north;fillColor=#BC1356;strokeColor=#ffffff;dashed=0;verticalLabelPosition=bottom;verticalAlign=top;align=center;html=1;fontSize=12;fontStyle=0;aspect=fixed;shape=mxgraph.aws4.resourceIcon;resIcon=mxgraph.aws4.sns;" vertex="1" parent="1">
          <mxGeometry x="530" y="770" width="68" height="68" as="geometry" />
        </mxCell>
        <mxCell id="wo2wBc4n8cHvYzIf5kkk-2" value="SNS" style="text;html=1;align=center;verticalAlign=middle;resizable=0;points=[];autosize=1;" vertex="1" parent="1">
          <mxGeometry x="544" y="740" width="40" height="20" as="geometry" />
        </mxCell>
        <mxCell id="wo2wBc4n8cHvYzIf5kkk-4" value="SQS" style="text;html=1;align=center;verticalAlign=middle;resizable=0;points=[];autosize=1;" vertex="1" parent="1">
          <mxGeometry x="679" y="657" width="40" height="20" as="geometry" />
        </mxCell>
        <mxCell id="wo2wBc4n8cHvYzIf5kkk-5" value="" style="outlineConnect=0;fontColor=#232F3E;gradientColor=#F78E04;gradientDirection=north;fillColor=#D05C17;strokeColor=#ffffff;dashed=0;verticalLabelPosition=bottom;verticalAlign=top;align=center;html=1;fontSize=12;fontStyle=0;aspect=fixed;shape=mxgraph.aws4.resourceIcon;resIcon=mxgraph.aws4.lambda;" vertex="1" parent="1">
          <mxGeometry x="820" y="674.74" width="59" height="59" as="geometry" />
        </mxCell>
        <mxCell id="wo2wBc4n8cHvYzIf5kkk-6" value="order service" style="text;html=1;align=center;verticalAlign=middle;resizable=0;points=[];autosize=1;" vertex="1" parent="1">
          <mxGeometry x="809.5" y="650" width="80" height="20" as="geometry" />
        </mxCell>
        <mxCell id="wo2wBc4n8cHvYzIf5kkk-7" value="" style="outlineConnect=0;fontColor=#232F3E;gradientColor=#F78E04;gradientDirection=north;fillColor=#D05C17;strokeColor=#ffffff;dashed=0;verticalLabelPosition=bottom;verticalAlign=top;align=center;html=1;fontSize=12;fontStyle=0;aspect=fixed;shape=mxgraph.aws4.resourceIcon;resIcon=mxgraph.aws4.lambda;" vertex="1" parent="1">
          <mxGeometry x="370" y="770" width="63" height="63" as="geometry" />
        </mxCell>
        <mxCell id="wo2wBc4n8cHvYzIf5kkk-8" value="BFF" style="text;html=1;align=center;verticalAlign=middle;resizable=0;points=[];autosize=1;" vertex="1" parent="1">
          <mxGeometry x="381.5" y="740" width="40" height="20" as="geometry" />
        </mxCell>
        <mxCell id="wo2wBc4n8cHvYzIf5kkk-9" value="" style="outlineConnect=0;fontColor=#232F3E;gradientColor=#945DF2;gradientDirection=north;fillColor=#5A30B5;strokeColor=#ffffff;dashed=0;verticalLabelPosition=bottom;verticalAlign=top;align=center;html=1;fontSize=12;fontStyle=0;aspect=fixed;shape=mxgraph.aws4.resourceIcon;resIcon=mxgraph.aws4.api_gateway;" vertex="1" parent="1">
          <mxGeometry x="193" y="767" width="64" height="64" as="geometry" />
        </mxCell>
        <mxCell id="wo2wBc4n8cHvYzIf5kkk-10" value="API Gateway" style="text;html=1;align=center;verticalAlign=middle;resizable=0;points=[];autosize=1;" vertex="1" parent="1">
          <mxGeometry x="180" y="740" width="90" height="20" as="geometry" />
        </mxCell>
        <mxCell id="wo2wBc4n8cHvYzIf5kkk-11" value="" style="outlineConnect=0;fontColor=#232F3E;gradientColor=none;fillColor=#232F3E;strokeColor=none;dashed=0;verticalLabelPosition=bottom;verticalAlign=top;align=center;html=1;fontSize=12;fontStyle=0;aspect=fixed;pointerEvents=1;shape=mxgraph.aws4.client;" vertex="1" parent="1">
          <mxGeometry x="10" y="774.49" width="58" height="56.51" as="geometry" />
        </mxCell>
        <mxCell id="wo2wBc4n8cHvYzIf5kkk-25" value="New Order" style="edgeStyle=orthogonalEdgeStyle;rounded=0;orthogonalLoop=1;jettySize=auto;html=1;" edge="1" parent="1" source="wo2wBc4n8cHvYzIf5kkk-12" target="wo2wBc4n8cHvYzIf5kkk-5">
          <mxGeometry relative="1" as="geometry" />
        </mxCell>
        <mxCell id="wo2wBc4n8cHvYzIf5kkk-12" value="" style="shape=image;html=1;verticalAlign=top;verticalLabelPosition=bottom;labelBackgroundColor=#ffffff;imageAspect=0;aspect=fixed;image=https://cdn2.iconfinder.com/data/icons/amazon-aws-stencils/100/App_Services_copy_Amazon_SQS_Queue-128.png" vertex="1" parent="1">
          <mxGeometry x="670" y="675.74" width="58" height="58" as="geometry" />
        </mxCell>
        <mxCell id="wo2wBc4n8cHvYzIf5kkk-13" value="Client" style="text;html=1;align=center;verticalAlign=middle;resizable=0;points=[];autosize=1;" vertex="1" parent="1">
          <mxGeometry x="10" y="753.74" width="50" height="20" as="geometry" />
        </mxCell>
        <mxCell id="wo2wBc4n8cHvYzIf5kkk-21" value="" style="html=1;shadow=0;dashed=0;align=center;verticalAlign=middle;shape=mxgraph.arrows2.arrow;dy=0.68;dx=30.8;notch=0;fillColor=#0F0F0F;" vertex="1" parent="1">
          <mxGeometry x="440" y="790" width="80" height="24" as="geometry" />
        </mxCell>
        <mxCell id="wo2wBc4n8cHvYzIf5kkk-22" value="" style="html=1;shadow=0;dashed=0;align=center;verticalAlign=middle;shape=mxgraph.arrows2.arrow;dy=0.68;dx=30.8;notch=0;fillColor=#0F0F0F;" vertex="1" parent="1">
          <mxGeometry x="270" y="790" width="80" height="24" as="geometry" />
        </mxCell>
        <mxCell id="wo2wBc4n8cHvYzIf5kkk-23" value="" style="html=1;shadow=0;dashed=0;align=center;verticalAlign=middle;shape=mxgraph.arrows2.arrow;dy=0.7;dx=31.83;notch=0;fillColor=#0F0F0F;" vertex="1" parent="1">
          <mxGeometry x="90" y="790" width="80" height="19" as="geometry" />
        </mxCell>
        <mxCell id="wo2wBc4n8cHvYzIf5kkk-24" value="" style="html=1;shadow=0;dashed=0;align=center;verticalAlign=middle;shape=mxgraph.arrows2.arrow;dy=0.68;dx=30.8;notch=0;fillColor=#0F0F0F;rotation=-40;" vertex="1" parent="1">
          <mxGeometry x="601.21" y="718.83" width="72" height="20" as="geometry" />
        </mxCell>
        <mxCell id="wo2wBc4n8cHvYzIf5kkk-26" value="Order Events" style="text;html=1;align=center;verticalAlign=middle;resizable=0;points=[];autosize=1;" vertex="1" parent="1">
          <mxGeometry x="560" y="694.24" width="90" height="20" as="geometry" />
        </mxCell>
      </root>
    </mxGraphModel>
  </diagram>
</mxfile>
